<?xml version="1.0" encoding="utf-8"?>
<!-- Generator: Adobe Illustrator 24.1.2, SVG Export Plug-In . SVG Version: 6.00 Build 0)  -->
<svg version="1.1" id="Layer_1" xmlns="http://www.w3.org/2000/svg" xmlns:xlink="http://www.w3.org/1999/xlink" x="0px" y="0px"
	 viewBox="0 0 1190.55 641.89" style="enable-background:new 0 0 1190.55 641.89;" xml:space="preserve">
<style type="text/css">
	.st0{fill:#9C1C22;}
</style>
<g>
	<polygon class="st0" points="251.37,234.92 200.46,234.92 313.6,-6 429.56,234.92 367.33,234.92 315.01,98.28 	"/>
	<path class="st0" d="M642.82,260.24c0,0-565.27-118.43-633.54,136.64c0,0-16.97,176.19,212.12,230.13
		c0,0-161.21-104.28-104.65-208.56l404.44,3.6l-76.36-158.22C444.84,263.84,550.22,245.31,642.82,260.24z M204.43,332.16
		l178.18-57.53l22.63,57.53H204.43z"/>
</g>
<g>
	<g>
		<path class="st0" d="M585.31,307.44l-34.13-2.85v-10.21h75.87v9.79l-33.47,3.27H585.31z M559.8,294.38h42.42l39.56,96.22
			l-6.8,4.12l41.92-100.34h15.24L638.29,419.7h-22.98L559.8,294.38z M678.3,307.44l-25.04-3.27v-9.79h50.92v10.21l-22.37,2.85H678.3
			z"/>
		<path class="st0" d="M727.6,419.33c0.47-8.56,0.71-28.15,0.71-39.94v-9.08c0-10.46-0.24-16.36-0.71-23.96l-14.53-1.71v-7.48
			l49.24-12.65l4.04,2.04l-0.71,27.6v25.24c0,11.79,0.23,31.38,0.71,39.94H727.6z M777.72,410.48v8.85h-62.39v-8.85l21.79-3.8h17.76
			L777.72,410.48z M726.65,295.3c0-8.87,8.85-15.14,19.93-15.14s19.93,6.26,19.93,15.14c0,8.82-8.85,15.14-19.93,15.14
			S726.65,304.12,726.65,295.3z"/>
		<path class="st0" d="M795.52,362.49h60.86v17.11h-60.86V362.49z"/>
		<path class="st0" d="M888.43,370.32c0-10.46-0.24-16.36-0.71-23.96l-14.4-1.71v-7.48l48.98-12.65l4.04,2.04l-0.71,27.6v54.92
			c0,22.79-3.79,33.02-15.23,42.49c-11.87,9.76-26.82,12.85-38.83,12.85c-16.82,0-26.56-6.31-30.13-13.17
			c1.1-8.92,10.38-13.87,19.75-13.87c8.32,0,15.8,3.69,21.3,11.14l8.21,10.75l-35.93-0.2l-1.02-8.93
			c3.03,4.31,10.63,7.26,19.07,7.26c7.6,0,12.5-2.38,14.67-9.69c2.57-9.22,0.93-27.04,0.93-44.26V370.32z M886.83,295.3
			c0-8.87,8.85-15.14,19.93-15.14c11.08,0,19.93,6.26,19.93,15.14c0,8.82-8.85,15.14-19.93,15.14
			C895.68,310.43,886.83,304.12,886.83,295.3z"/>
		<path class="st0" d="M1060.75,364.68c0,4.1-0.37,7.08-1.31,10.24h-92.02v-10.05h44.08c11.29,0,14.21-3.41,14.21-11.89
			c0-12.49-7.38-18.67-15.92-18.67c-9.79,0-18.71,8.62-18.71,36.09c0,23.19,14.2,33.66,31.77,33.66c12.67,0,21.4-4.28,28.51-10.21
			l8.12,6.17c-9.65,14.88-26.57,22.2-49.32,22.2c-34.22,0-58.58-18.1-58.58-48.79c0-31.71,30.22-48.91,60.56-48.91
			C1043.17,324.51,1060.75,341.67,1060.75,364.68z"/>
		<path class="st0" d="M1091.64,338.69l-21.35-2.99v-8.3h66.99v8.22l-21.09,3.07H1091.64z M1071.05,450.07
			c1.98-8.34,10.16-12.24,19.42-12.24c6.28,0,13.87,1.35,20.22,8.82l7.29,8.64l-8.83,3.22l-7.2-3.22
			c11.17-5.45,20.75-15.83,26.29-28.6l12.38-28.76l30.78-70.54h15.41l-47.45,99.71c-11.58,24.35-22.2,37.3-44.02,37.3
			C1082.79,464.41,1071.9,458.17,1071.05,450.07z M1130.74,431.28l-54.57-103.88h40.53l31.49,70.59L1130.74,431.28z M1170.88,338.55
			l-19.66-2.85v-8.3h44.39v8.3l-20.19,2.85H1170.88z"/>
	</g>
</g>
</svg>
